<svg width="725" height="243" viewBox="0 0 725 243" fill="none" xmlns="http://www.w3.org/2000/svg">
<path d="M5.4996 237.122L5.4996 7.83739" stroke="white" stroke-width="11" stroke-linecap="round"/>
<path d="M84.4994 237.122L84.4994 7.83739" stroke="white" stroke-width="11" stroke-linecap="round"/>
<path d="M121.499 237.122L121.499 7.83739" stroke="white" stroke-width="11" stroke-linecap="round"/>
<path d="M184.5 237.122L184.5 7.83739" stroke="white" stroke-width="11" stroke-linecap="round"/>
<path d="M265.5 237.122L265.5 7.83739" stroke="white" stroke-width="11" stroke-linecap="round"/>
<path d="M653.5 237.122L653.5 7.83739" stroke="white" stroke-width="11" stroke-linecap="round"/>
<path d="M296.5 237.122L296.5 7.83739" stroke="white" stroke-width="11" stroke-linecap="round"/>
<path d="M473.5 237.122L473.5 7.83739" stroke="white" stroke-width="11" stroke-linecap="round"/>
<path d="M524.5 237.122L524.5 7.83739" stroke="white" stroke-width="11" stroke-linecap="round"/>
<path d="M56.1094 74.5564L6.95618 9.99998" stroke="white" stroke-width="11" stroke-linecap="round"/>
<path d="M156 78L122.023 10.084" stroke="white" stroke-width="11" stroke-linecap="round"/>
<path d="M232 236L185 237" stroke="white" stroke-width="11" stroke-linecap="round"/>
<path d="M235 236L235 149" stroke="white" stroke-width="11" stroke-linecap="round"/>
<path d="M233.999 149L208 149" stroke="white" stroke-width="11" stroke-linecap="round"/>
<path d="M222.999 8.0001L184.999 8.0001" stroke="white" stroke-width="11" stroke-linecap="round"/>
<path d="M150 115L139 115" stroke="white" stroke-width="11" stroke-linecap="round"/>
<path d="M335.084 8.24774L298 8.00006" stroke="white" stroke-width="11" stroke-linecap="round"/>
<path d="M342 237H299" stroke="white" stroke-width="11" stroke-linecap="round"/>
<path d="M402.5 122.959V6.87808" stroke="white" stroke-width="11" stroke-linecap="round"/>
<path d="M442 8.00006L403 8.00006" stroke="white" stroke-width="11" stroke-linecap="round"/>
<path d="M719.002 120.4L676 120" stroke="white" stroke-width="11" stroke-linecap="round"/>
<path d="M440 126H403" stroke="white" stroke-width="11" stroke-linecap="round"/>
<path d="M441 236L441 126" stroke="white" stroke-width="11" stroke-linecap="round"/>
<path d="M441 237L402 237" stroke="white" stroke-width="11" stroke-linecap="round"/>
<path d="M541 100L464 160.276" stroke="white" stroke-width="11" stroke-linecap="round"/>
<path d="M561.679 123.539L592 6" stroke="white" stroke-width="11" stroke-linecap="round"/>
<path d="M625.694 120.514L595 6" stroke="white" stroke-width="11" stroke-linecap="round"/>
<path d="M719 120L654.201 10.4167" stroke="white" stroke-width="11" stroke-linecap="round"/>
<path d="M592 236L562 124" stroke="white" stroke-width="11" stroke-linecap="round"/>
<path d="M595 237L626 121" stroke="white" stroke-width="11" stroke-linecap="round"/>
<path d="M83.4526 10.9341L34.9995 74.0001" stroke="white" stroke-width="11" stroke-linecap="round"/>
</svg>
